<svg width="21" height="14" viewBox="0 0 21 14" fill="none" xmlns="http://www.w3.org/2000/svg">
<path d="M18.5625 1.17676H13.4297V2.42229H18.5625V1.17676ZM16.0313 5.45578C15.4286 5.45578 14.9397 5.63323 14.5647 5.98814C14.1897 6.33636 13.9821 6.8118 13.942 7.41448H18.0402C17.9196 6.10868 17.25 5.45578 16.0313 5.45578ZM16.192 11.3319C16.6138 11.3319 17.0223 11.2247 17.4174 11.0105C17.8125 10.7962 18.067 10.5049 18.1808 10.1366H20.4007C19.731 12.1924 18.3013 13.2203 16.1116 13.2203C14.6786 13.2203 13.5368 12.7783 12.6864 11.8944C11.8426 11.0105 11.4208 9.84863 11.4208 8.4089C11.4208 7.01604 11.856 5.86091 12.7266 4.9435C13.6038 4.01939 14.7321 3.55734 16.1116 3.55734C17.0357 3.55734 17.8393 3.78502 18.5223 4.24037C19.2121 4.69573 19.7243 5.29506 20.0592 6.03836C20.4007 6.78167 20.5714 7.61203 20.5714 8.52944C20.5714 8.64328 20.5647 8.80064 20.5513 9.00153H13.942C13.942 9.74484 14.1328 10.3207 14.5145 10.7292C14.9029 11.131 15.4621 11.3319 16.192 11.3319ZM2.78237 10.8297H5.75558C7.12835 10.8297 7.81473 10.2705 7.81473 9.1522C7.81473 7.94685 7.14844 7.34417 5.81585 7.34417H2.78237V10.8297ZM2.78237 5.43569H5.60491C6.12723 5.43569 6.53906 5.31515 6.8404 5.07408C7.14844 4.82631 7.30246 4.44461 7.30246 3.92899C7.30246 2.9647 6.66629 2.48256 5.39397 2.48256H2.78237V5.43569ZM0 0.322962H5.96652C6.54911 0.322962 7.06808 0.369837 7.52344 0.463587C7.9788 0.557337 8.40067 0.718052 8.78906 0.945731C9.18415 1.16671 9.48549 1.48814 9.69308 1.91002C9.90737 2.33189 10.0145 2.84752 10.0145 3.45689C10.0145 4.66894 9.43862 5.54953 8.28683 6.09863C9.05022 6.31292 9.62612 6.69796 10.0145 7.25377C10.4029 7.80957 10.5971 8.49261 10.5971 9.30287C10.5971 9.80511 10.5134 10.2638 10.346 10.679C10.1853 11.0875 9.96429 11.4323 9.68304 11.7136C9.40848 11.9948 9.08036 12.2326 8.69866 12.4268C8.31696 12.621 7.91183 12.7616 7.48326 12.8486C7.05469 12.9357 6.60603 12.9792 6.13728 12.9792H0V0.322962Z" fill="white"/>
</svg>
