<svg width="15" height="19" viewBox="0 0 15 19" fill="none" xmlns="http://www.w3.org/2000/svg">
<path d="M4.28195 13.95V14.5928C4.28195 14.6799 4.24847 14.7569 4.1815 14.8238C4.12123 14.8841 4.04757 14.9142 3.96052 14.9142H3.31766C3.23061 14.9142 3.1536 14.8841 3.08664 14.8238C3.02637 14.7569 2.99623 14.6799 2.99623 14.5928V13.95C2.99623 13.8629 3.02637 13.7892 3.08664 13.729C3.1536 13.662 3.23061 13.6285 3.31766 13.6285H3.96052C4.04757 13.6285 4.12123 13.662 4.1815 13.729C4.24847 13.7892 4.28195 13.8629 4.28195 13.95ZM4.28195 11.3785V12.0214C4.28195 12.1084 4.24847 12.1854 4.1815 12.2524C4.12123 12.3127 4.04757 12.3428 3.96052 12.3428H3.31766C3.23061 12.3428 3.1536 12.3127 3.08664 12.2524C3.02637 12.1854 2.99623 12.1084 2.99623 12.0214V11.3785C2.99623 11.2915 3.02637 11.2178 3.08664 11.1575C3.1536 11.0906 3.23061 11.0571 3.31766 11.0571H3.96052C4.04757 11.0571 4.12123 11.0906 4.1815 11.1575C4.24847 11.2178 4.28195 11.2915 4.28195 11.3785ZM6.85338 11.3785V12.0214C6.85338 12.1084 6.81989 12.1854 6.75293 12.2524C6.69266 12.3127 6.619 12.3428 6.53195 12.3428H5.88909C5.80204 12.3428 5.72503 12.3127 5.65806 12.2524C5.5978 12.1854 5.56766 12.1084 5.56766 12.0214V11.3785C5.56766 11.2915 5.5978 11.2178 5.65806 11.1575C5.72503 11.0906 5.80204 11.0571 5.88909 11.0571H6.53195C6.619 11.0571 6.69266 11.0906 6.75293 11.1575C6.81989 11.2178 6.85338 11.2915 6.85338 11.3785ZM4.28195 8.80709V9.44995C4.28195 9.537 4.24847 9.61401 4.1815 9.68098C4.12123 9.74125 4.04757 9.77138 3.96052 9.77138H3.31766C3.23061 9.77138 3.1536 9.74125 3.08664 9.68098C3.02637 9.61401 2.99623 9.537 2.99623 9.44995V8.80709C2.99623 8.72004 3.02637 8.64638 3.08664 8.58611C3.1536 8.51915 3.23061 8.48566 3.31766 8.48566H3.96052C4.04757 8.48566 4.12123 8.51915 4.1815 8.58611C4.24847 8.64638 4.28195 8.72004 4.28195 8.80709ZM11.9962 13.95V14.5928C11.9962 14.6799 11.9628 14.7569 11.8958 14.8238C11.8355 14.8841 11.7619 14.9142 11.6748 14.9142H11.0319C10.9449 14.9142 10.8679 14.8841 10.8009 14.8238C10.7407 14.7569 10.7105 14.6799 10.7105 14.5928V13.95C10.7105 13.8629 10.7407 13.7892 10.8009 13.729C10.8679 13.662 10.9449 13.6285 11.0319 13.6285H11.6748C11.7619 13.6285 11.8355 13.662 11.8958 13.729C11.9628 13.7892 11.9962 13.8629 11.9962 13.95ZM9.4248 11.3785V12.0214C9.4248 12.1084 9.39132 12.1854 9.32436 12.2524C9.26409 12.3127 9.19043 12.3428 9.10338 12.3428H8.46052C8.37347 12.3428 8.29646 12.3127 8.22949 12.2524C8.16922 12.1854 8.13909 12.1084 8.13909 12.0214V11.3785C8.13909 11.2915 8.16922 11.2178 8.22949 11.1575C8.29646 11.0906 8.37347 11.0571 8.46052 11.0571H9.10338C9.19043 11.0571 9.26409 11.0906 9.32436 11.1575C9.39132 11.2178 9.4248 11.2915 9.4248 11.3785ZM6.85338 8.80709V9.44995C6.85338 9.537 6.81989 9.61401 6.75293 9.68098C6.69266 9.74125 6.619 9.77138 6.53195 9.77138H5.88909C5.80204 9.77138 5.72503 9.74125 5.65806 9.68098C5.5978 9.61401 5.56766 9.537 5.56766 9.44995V8.80709C5.56766 8.72004 5.5978 8.64638 5.65806 8.58611C5.72503 8.51915 5.80204 8.48566 5.88909 8.48566H6.53195C6.619 8.48566 6.69266 8.51915 6.75293 8.58611C6.81989 8.64638 6.85338 8.72004 6.85338 8.80709ZM4.28195 6.23566V6.87852C4.28195 6.96558 4.24847 7.04258 4.1815 7.10955C4.12123 7.16982 4.04757 7.19995 3.96052 7.19995H3.31766C3.23061 7.19995 3.1536 7.16982 3.08664 7.10955C3.02637 7.04258 2.99623 6.96558 2.99623 6.87852V6.23566C2.99623 6.14861 3.02637 6.07495 3.08664 6.01468C3.1536 5.94772 3.23061 5.91424 3.31766 5.91424H3.96052C4.04757 5.91424 4.12123 5.94772 4.1815 6.01468C4.24847 6.07495 4.28195 6.14861 4.28195 6.23566ZM11.9962 11.3785V12.0214C11.9962 12.1084 11.9628 12.1854 11.8958 12.2524C11.8355 12.3127 11.7619 12.3428 11.6748 12.3428H11.0319C10.9449 12.3428 10.8679 12.3127 10.8009 12.2524C10.7407 12.1854 10.7105 12.1084 10.7105 12.0214V11.3785C10.7105 11.2915 10.7407 11.2178 10.8009 11.1575C10.8679 11.0906 10.9449 11.0571 11.0319 11.0571H11.6748C11.7619 11.0571 11.8355 11.0906 11.8958 11.1575C11.9628 11.2178 11.9962 11.2915 11.9962 11.3785ZM9.4248 8.80709V9.44995C9.4248 9.537 9.39132 9.61401 9.32436 9.68098C9.26409 9.74125 9.19043 9.77138 9.10338 9.77138H8.46052C8.37347 9.77138 8.29646 9.74125 8.22949 9.68098C8.16922 9.61401 8.13909 9.537 8.13909 9.44995V8.80709C8.13909 8.72004 8.16922 8.64638 8.22949 8.58611C8.29646 8.51915 8.37347 8.48566 8.46052 8.48566H9.10338C9.19043 8.48566 9.26409 8.51915 9.32436 8.58611C9.39132 8.64638 9.4248 8.72004 9.4248 8.80709ZM6.85338 6.23566V6.87852C6.85338 6.96558 6.81989 7.04258 6.75293 7.10955C6.69266 7.16982 6.619 7.19995 6.53195 7.19995H5.88909C5.80204 7.19995 5.72503 7.16982 5.65806 7.10955C5.5978 7.04258 5.56766 6.96558 5.56766 6.87852V6.23566C5.56766 6.14861 5.5978 6.07495 5.65806 6.01468C5.72503 5.94772 5.80204 5.91424 5.88909 5.91424H6.53195C6.619 5.91424 6.69266 5.94772 6.75293 6.01468C6.81989 6.07495 6.85338 6.14861 6.85338 6.23566ZM4.28195 3.66424V4.30709C4.28195 4.39415 4.24847 4.47116 4.1815 4.53812C4.12123 4.59839 4.04757 4.62852 3.96052 4.62852H3.31766C3.23061 4.62852 3.1536 4.59839 3.08664 4.53812C3.02637 4.47116 2.99623 4.39415 2.99623 4.30709V3.66424C2.99623 3.57718 3.02637 3.50352 3.08664 3.44325C3.1536 3.37629 3.23061 3.34281 3.31766 3.34281H3.96052C4.04757 3.34281 4.12123 3.37629 4.1815 3.44325C4.24847 3.50352 4.28195 3.57718 4.28195 3.66424ZM11.9962 8.80709V9.44995C11.9962 9.537 11.9628 9.61401 11.8958 9.68098C11.8355 9.74125 11.7619 9.77138 11.6748 9.77138H11.0319C10.9449 9.77138 10.8679 9.74125 10.8009 9.68098C10.7407 9.61401 10.7105 9.537 10.7105 9.44995V8.80709C10.7105 8.72004 10.7407 8.64638 10.8009 8.58611C10.8679 8.51915 10.9449 8.48566 11.0319 8.48566H11.6748C11.7619 8.48566 11.8355 8.51915 11.8958 8.58611C11.9628 8.64638 11.9962 8.72004 11.9962 8.80709ZM9.4248 6.23566V6.87852C9.4248 6.96558 9.39132 7.04258 9.32436 7.10955C9.26409 7.16982 9.19043 7.19995 9.10338 7.19995H8.46052C8.37347 7.19995 8.29646 7.16982 8.22949 7.10955C8.16922 7.04258 8.13909 6.96558 8.13909 6.87852V6.23566C8.13909 6.14861 8.16922 6.07495 8.22949 6.01468C8.29646 5.94772 8.37347 5.91424 8.46052 5.91424H9.10338C9.19043 5.91424 9.26409 5.94772 9.32436 6.01468C9.39132 6.07495 9.4248 6.14861 9.4248 6.23566ZM6.85338 3.66424V4.30709C6.85338 4.39415 6.81989 4.47116 6.75293 4.53812C6.69266 4.59839 6.619 4.62852 6.53195 4.62852H5.88909C5.80204 4.62852 5.72503 4.59839 5.65806 4.53812C5.5978 4.47116 5.56766 4.39415 5.56766 4.30709V3.66424C5.56766 3.57718 5.5978 3.50352 5.65806 3.44325C5.72503 3.37629 5.80204 3.34281 5.88909 3.34281H6.53195C6.619 3.34281 6.69266 3.37629 6.75293 3.44325C6.81989 3.50352 6.85338 3.57718 6.85338 3.66424ZM11.9962 6.23566V6.87852C11.9962 6.96558 11.9628 7.04258 11.8958 7.10955C11.8355 7.16982 11.7619 7.19995 11.6748 7.19995H11.0319C10.9449 7.19995 10.8679 7.16982 10.8009 7.10955C10.7407 7.04258 10.7105 6.96558 10.7105 6.87852V6.23566C10.7105 6.14861 10.7407 6.07495 10.8009 6.01468C10.8679 5.94772 10.9449 5.91424 11.0319 5.91424H11.6748C11.7619 5.91424 11.8355 5.94772 11.8958 6.01468C11.9628 6.07495 11.9962 6.14861 11.9962 6.23566ZM9.4248 3.66424V4.30709C9.4248 4.39415 9.39132 4.47116 9.32436 4.53812C9.26409 4.59839 9.19043 4.62852 9.10338 4.62852H8.46052C8.37347 4.62852 8.29646 4.59839 8.22949 4.53812C8.16922 4.47116 8.13909 4.39415 8.13909 4.30709V3.66424C8.13909 3.57718 8.16922 3.50352 8.22949 3.44325C8.29646 3.37629 8.37347 3.34281 8.46052 3.34281H9.10338C9.19043 3.34281 9.26409 3.37629 9.32436 3.44325C9.39132 3.50352 9.4248 3.57718 9.4248 3.66424ZM11.9962 3.66424V4.30709C11.9962 4.39415 11.9628 4.47116 11.8958 4.53812C11.8355 4.59839 11.7619 4.62852 11.6748 4.62852H11.0319C10.9449 4.62852 10.8679 4.59839 10.8009 4.53812C10.7407 4.47116 10.7105 4.39415 10.7105 4.30709V3.66424C10.7105 3.57718 10.7407 3.50352 10.8009 3.44325C10.8679 3.37629 10.9449 3.34281 11.0319 3.34281H11.6748C11.7619 3.34281 11.8355 3.37629 11.8958 3.44325C11.9628 3.50352 11.9962 3.57718 11.9962 3.66424ZM9.4248 17.4857H13.2819V2.05709H1.71052V17.4857H5.56766V15.2357C5.56766 15.1486 5.5978 15.075 5.65806 15.0147C5.72503 14.9477 5.80204 14.9142 5.88909 14.9142H9.10338C9.19043 14.9142 9.26409 14.9477 9.32436 15.0147C9.39132 15.075 9.4248 15.1486 9.4248 15.2357V17.4857ZM14.5677 1.41424V18.1285C14.5677 18.3026 14.504 18.4533 14.3768 18.5805C14.2496 18.7078 14.0989 18.7714 13.9248 18.7714H1.06766C0.893555 18.7714 0.742885 18.7078 0.615653 18.5805C0.488421 18.4533 0.424805 18.3026 0.424805 18.1285V1.41424C0.424805 1.24013 0.488421 1.08946 0.615653 0.962227C0.742885 0.834995 0.893555 0.771379 1.06766 0.771379H13.9248C14.0989 0.771379 14.2496 0.834995 14.3768 0.962227C14.504 1.08946 14.5677 1.24013 14.5677 1.41424Z" fill="white"/>
</svg>
