<svg width="19" height="15" viewBox="0 0 19 15" fill="none" xmlns="http://www.w3.org/2000/svg">
<path d="M18.5 4.90308V12.8785C18.5 13.3205 18.3426 13.6988 18.0279 14.0136C17.7132 14.3283 17.3348 14.4857 16.8929 14.4857H2.10714C1.66518 14.4857 1.28683 14.3283 0.972098 14.0136C0.657366 13.6988 0.5 13.3205 0.5 12.8785V4.90308C0.794643 5.2312 1.13281 5.5225 1.51451 5.77696C3.93862 7.42428 5.60268 8.57942 6.5067 9.24236C6.88839 9.52361 7.19643 9.74459 7.4308 9.90531C7.67188 10.0593 7.98996 10.22 8.38504 10.3875C8.78013 10.5482 9.14844 10.6285 9.48996 10.6285H9.5H9.51005C9.85156 10.6285 10.2199 10.5482 10.615 10.3875C11.01 10.22 11.3248 10.0593 11.5592 9.90531C11.8002 9.74459 12.1116 9.52361 12.4933 9.24236C13.6317 8.4187 15.2991 7.26357 17.4955 5.77696C17.8772 5.5158 18.2121 5.2245 18.5 4.90308ZM18.5 1.94995C18.5 2.47897 18.3359 2.98455 18.0078 3.46669C17.6797 3.94883 17.2712 4.36066 16.7824 4.70218C14.2645 6.44995 12.6975 7.53812 12.0815 7.96669C12.0145 8.01357 11.8705 8.11736 11.6496 8.27808C11.4353 8.43209 11.2545 8.55933 11.1071 8.65977C10.9665 8.75352 10.7924 8.86067 10.5848 8.9812C10.3839 9.10174 10.1931 9.19214 10.0123 9.25241C9.83147 9.31267 9.66406 9.34281 9.51005 9.34281H9.5H9.48996C9.33594 9.34281 9.16853 9.31267 8.98772 9.25241C8.80692 9.19214 8.61272 9.10174 8.40513 8.9812C8.20424 8.86067 8.03013 8.75352 7.88281 8.65977C7.74219 8.55933 7.56138 8.43209 7.3404 8.27808C7.12612 8.11736 6.98549 8.01357 6.91853 7.96669C6.30915 7.53812 5.43192 6.92875 4.28683 6.13857C3.14174 5.34169 2.45536 4.8629 2.22768 4.70218C1.8125 4.42093 1.42076 4.03589 1.05246 3.54705C0.684152 3.05151 0.5 2.59281 0.5 2.17093C0.5 1.64861 0.637277 1.21334 0.91183 0.86513C1.19308 0.516915 1.59152 0.342808 2.10714 0.342808H16.8929C17.3281 0.342808 17.7031 0.500174 18.0179 0.814906C18.3393 1.12964 18.5 1.50799 18.5 1.94995Z" fill="white"/>
</svg>
