<svg width="24" height="16" viewBox="0 0 24 16" fill="none" xmlns="http://www.w3.org/2000/svg">
<path d="M14.4342 7.94209C14.4342 9.33495 14.1429 10.5771 13.5603 11.6687C12.9777 12.7535 12.1473 13.6006 11.0692 14.21C9.99107 14.826 8.75558 15.1341 7.36272 15.1341C6.36496 15.1341 5.41071 14.9399 4.5 14.5515C3.58929 14.1631 2.8058 13.6408 2.14955 12.9845C1.4933 12.3283 0.970982 11.5448 0.582589 10.6341C0.194196 9.72334 0 8.7691 0 7.77133C0 6.77357 0.194196 5.81932 0.582589 4.90861C0.970982 3.9979 1.4933 3.21441 2.14955 2.55816C2.8058 1.90191 3.58929 1.37959 4.5 0.9912C5.41071 0.602807 6.36496 0.40861 7.36272 0.40861C9.2779 0.40861 10.9219 1.05147 12.2946 2.33718L10.2958 4.25571C9.51228 3.49901 8.5346 3.12066 7.36272 3.12066C6.53906 3.12066 5.77567 3.32825 5.07254 3.74343C4.37612 4.15861 3.82366 4.72446 3.41518 5.44098C3.0067 6.1508 2.80246 6.92758 2.80246 7.77133C2.80246 8.61508 3.0067 9.39522 3.41518 10.1117C3.82366 10.8216 4.37612 11.3841 5.07254 11.7992C5.77567 12.2144 6.53906 12.422 7.36272 12.422C7.91853 12.422 8.42746 12.345 8.88951 12.191C9.35826 12.037 9.7433 11.8461 10.0446 11.6184C10.346 11.3841 10.6071 11.1195 10.8281 10.8249C11.0558 10.5303 11.2199 10.2524 11.3203 9.9912C11.4275 9.73004 11.5011 9.48227 11.5413 9.2479H7.36272V6.71665H14.3136C14.394 7.13852 14.4342 7.547 14.4342 7.94209ZM23.1429 6.71665V8.82602H21.0435V10.9254H18.9342V8.82602H16.8348V6.71665H18.9342V4.61732H21.0435V6.71665H23.1429Z" fill="white"/>
</svg>
