<svg width="15" height="15" viewBox="0 0 15 15" fill="none" xmlns="http://www.w3.org/2000/svg">
<path d="M14.5677 11.2267C14.5677 11.4075 14.5342 11.6453 14.4672 11.9399C14.4003 12.2279 14.3299 12.4555 14.2563 12.6229C14.1157 12.9578 13.7072 13.3127 13.0308 13.6877C12.4014 14.0292 11.7786 14.2 11.1625 14.2C10.9817 14.2 10.8043 14.1899 10.6302 14.1698C10.4561 14.143 10.2619 14.0995 10.0476 14.0392C9.83998 13.979 9.68262 13.9321 9.57548 13.8986C9.47503 13.8584 9.29088 13.7881 9.02302 13.6877C8.75516 13.5872 8.5911 13.527 8.53083 13.5069C7.87458 13.2725 7.28864 12.9946 6.77302 12.6732C5.92257 12.1441 5.03864 11.4209 4.12123 10.5035C3.20382 9.58611 2.48061 8.70218 1.95159 7.85174C1.63016 7.33611 1.35226 6.75017 1.11789 6.09392C1.0978 6.03366 1.03753 5.86959 0.937081 5.60174C0.836635 5.33388 0.766323 5.14973 0.726144 5.04928C0.692662 4.94214 0.645787 4.78477 0.585519 4.57718C0.525251 4.3629 0.481724 4.1687 0.454939 3.99459C0.434849 3.82049 0.424805 3.64303 0.424805 3.46223C0.424805 2.84616 0.595564 2.22339 0.937081 1.59392C1.31208 0.917585 1.66699 0.509102 2.00181 0.368477C2.16922 0.294817 2.3969 0.224504 2.68485 0.15754C2.97949 0.0905755 3.21722 0.0570933 3.39802 0.0570933C3.49177 0.0570933 3.56208 0.067138 3.60896 0.0872273C3.72949 0.127406 3.90695 0.381871 4.14132 0.850621C4.21498 0.977852 4.31543 1.15866 4.44266 1.39303C4.56989 1.62741 4.68708 1.84169 4.79422 2.03589C4.90137 2.22339 5.00516 2.40084 5.10561 2.56825C5.1257 2.59504 5.18262 2.67875 5.27637 2.81937C5.37681 2.96 5.45047 3.08053 5.49735 3.18098C5.54422 3.27473 5.56766 3.36848 5.56766 3.46223C5.56766 3.59616 5.47056 3.76357 5.27637 3.96446C5.08887 4.16535 4.88128 4.3495 4.6536 4.51691C4.43262 4.68433 4.22503 4.86178 4.03083 5.04928C3.84333 5.23678 3.74958 5.3908 3.74958 5.51133C3.74958 5.5716 3.76632 5.64861 3.7998 5.74236C3.83329 5.82942 3.86007 5.89638 3.88016 5.94325C3.90695 5.99013 3.95382 6.07049 4.02079 6.18433C4.09445 6.29817 4.13463 6.36178 4.14132 6.37517C4.65025 7.29258 5.23284 8.07942 5.88909 8.73567C6.54534 9.39192 7.33217 9.9745 8.24958 10.4834C8.26297 10.4901 8.32659 10.5303 8.44043 10.604C8.55427 10.6709 8.63463 10.7178 8.6815 10.7446C8.72838 10.7647 8.79534 10.7915 8.88239 10.825C8.97614 10.8584 9.05315 10.8752 9.11342 10.8752C9.23396 10.8752 9.38797 10.7814 9.57548 10.5939C9.76298 10.3997 9.94043 10.1921 10.1078 9.97116C10.2753 9.74348 10.4594 9.53589 10.6603 9.34839C10.8612 9.15419 11.0286 9.05709 11.1625 9.05709C11.2563 9.05709 11.35 9.08053 11.4438 9.12741C11.5442 9.17428 11.6648 9.24794 11.8054 9.34839C11.946 9.44214 12.0297 9.49906 12.0565 9.51915C12.2239 9.61959 12.4014 9.72339 12.5889 9.83053C12.7831 9.93767 12.9974 10.0549 13.2317 10.1821C13.4661 10.3093 13.6469 10.4098 13.7741 10.4834C14.2429 10.7178 14.4973 10.8953 14.5375 11.0158C14.5576 11.0627 14.5677 11.133 14.5677 11.2267Z" fill="white"/>
</svg>
