<svg width="17" height="14" viewBox="0 0 17 14" fill="none" xmlns="http://www.w3.org/2000/svg">
<path d="M16.2723 1.86955C15.8237 2.5258 15.2813 3.08495 14.6451 3.547C14.6518 3.64075 14.6551 3.78138 14.6551 3.96888C14.6551 4.83941 14.5279 5.70995 14.2734 6.58049C14.019 7.44432 13.6306 8.27468 13.1083 9.07156C12.5926 9.86843 11.9766 10.5749 11.26 11.191C10.5435 11.8004 9.67969 12.2892 8.66853 12.6575C7.65737 13.0191 6.57589 13.1999 5.42411 13.1999C3.60938 13.1999 1.94866 12.7144 0.441964 11.7434C0.676339 11.7702 0.9375 11.7836 1.22545 11.7836C2.73214 11.7836 4.07478 11.3216 5.25335 10.3975C4.55022 10.3841 3.92076 10.1698 3.36496 9.75459C2.80915 9.33272 2.42746 8.797 2.21987 8.14745C2.44085 8.18093 2.64509 8.19767 2.83259 8.19767C3.12054 8.19767 3.40513 8.16084 3.68638 8.08718C2.93638 7.93316 2.31362 7.56151 1.81808 6.97223C1.32924 6.37624 1.08482 5.68651 1.08482 4.90303V4.86285C1.54018 5.11732 2.02902 5.25459 2.55134 5.27468C2.10938 4.98004 1.75781 4.59499 1.49665 4.11955C1.23549 3.6441 1.10491 3.12848 1.10491 2.57267C1.10491 1.98339 1.25223 1.43763 1.54688 0.935396C2.35714 1.93316 3.34152 2.73339 4.5 3.33607C5.66518 3.93205 6.91071 4.26352 8.23661 4.33049C8.18304 4.07602 8.15625 3.82825 8.15625 3.58718C8.15625 2.68986 8.47098 1.92647 9.10045 1.297C9.73661 0.660843 10.5033 0.342762 11.4007 0.342762C12.3382 0.342762 13.1283 0.68428 13.7712 1.36732C14.5011 1.22669 15.1875 0.96553 15.8304 0.583834C15.5826 1.35392 15.1071 1.94991 14.404 2.37178C15.0268 2.30482 15.6496 2.13741 16.2723 1.86955Z" fill="white"/>
</svg>
